<?xml version="1.0" standalone="no"?>
<!DOCTYPE svg PUBLIC "-//W3C//DTD SVG 20010904//EN"
 "http://www.w3.org/TR/2001/REC-SVG-20010904/DTD/svg10.dtd">
<svg version="1.0" xmlns="http://www.w3.org/2000/svg"
 width="920.000000pt" height="920.000000pt" viewBox="0 0 920.000000 920.000000"
 preserveAspectRatio="xMidYMid meet">

<g transform="translate(0.000000,920.000000) scale(0.100000,-0.100000)"
fill="#000000" stroke="none">
<path d="M3215 9193 c-257 -11 -775 -64 -1009 -104 -531 -90 -1016 -238 -1376
-419 -213 -108 -451 -284 -575 -426 -104 -120 -140 -179 -210 -349 l-37 -90
-5 -2165 c-5 -2380 0 -2825 36 -2948 97 -332 366 -604 820 -831 167 -84 439
-191 611 -240 572 -165 1303 -271 1873 -271 l197 0 0 385 0 385 -72 0 c-112 1
-479 19 -613 30 -774 68 -1468 258 -1853 509 -126 82 -186 144 -207 212 -19
63 -32 445 -18 541 l8 56 160 -73 c578 -264 1296 -416 2190 -465 105 -5 238
-12 298 -16 l107 -6 0 391 0 391 -132 0 c-857 1 -1835 214 -2353 513 -134 77
-211 143 -241 203 -26 54 -27 64 -36 292 -8 224 -4 332 10 332 4 0 92 -36 196
-81 586 -249 1263 -394 2056 -439 405 -23 482 -25 488 -15 4 5 9 179 10 386
l4 376 -159 7 c-957 41 -1646 176 -2160 426 -79 38 -173 88 -210 113 -95 61
-187 149 -215 205 -22 46 -23 55 -23 309 0 194 3 265 12 274 10 10 30 5 95
-25 449 -207 913 -332 1578 -426 409 -57 517 -64 1005 -64 668 0 926 19 1425
105 251 43 470 93 700 159 174 50 281 90 513 188 98 41 181 72 185 68 4 -4 9
-123 12 -264 l5 -257 389 -3 389 -2 -7 862 -7 862 -33 86 c-89 228 -208 389
-411 552 -474 381 -1391 659 -2430 738 -284 21 -758 32 -980 23z m1005 -797
c637 -66 1077 -163 1500 -333 270 -108 500 -262 560 -376 21 -40 23 -49 12
-83 -28 -94 -209 -236 -440 -345 -404 -192 -898 -313 -1537 -379 -424 -43
-1155 -43 -1580 0 -467 48 -958 159 -1325 300 -131 50 -336 153 -422 210 -98
66 -184 157 -198 211 -17 64 0 98 95 186 339 317 1155 550 2180 623 197 14
976 4 1155 -14z"/>
<path d="M6100 4860 c-590 -53 -1168 -418 -1481 -936 -112 -185 -212 -439
-250 -636 -17 -87 -20 -145 -21 -368 0 -297 7 -370 57 -536 195 -641 656
-1122 1276 -1328 196 -66 326 -87 557 -93 399 -11 617 44 1054 263 l91 46 631
-631 c347 -347 636 -631 641 -631 5 0 130 120 277 267 l268 268 -636 636 -636
636 60 119 c195 392 254 613 255 959 1 277 -36 486 -129 723 -172 440 -493
800 -914 1025 -109 58 -293 130 -412 161 -170 44 -511 72 -688 56z m348 -780
c168 -19 265 -50 407 -131 230 -132 389 -296 498 -515 158 -315 158 -735 0
-1048 -60 -120 -111 -186 -242 -316 -139 -137 -237 -204 -385 -261 -148 -57
-241 -73 -436 -73 -160 -1 -184 1 -285 27 -193 49 -373 150 -520 288 -294 279
-425 667 -359 1060 63 374 319 705 679 879 180 87 391 117 643 90z"/>
</g>
</svg>
