<?xml version="1.0" encoding="UTF-8" standalone="no"?>
<!-- Created with Inkscape (http://www.inkscape.org/) -->

<svg
   xmlns:dc="http://purl.org/dc/elements/1.1/"
   xmlns:cc="http://creativecommons.org/ns#"
   xmlns:rdf="http://www.w3.org/1999/02/22-rdf-syntax-ns#"
   xmlns:svg="http://www.w3.org/2000/svg"
   xmlns="http://www.w3.org/2000/svg"
   xmlns:sodipodi="http://sodipodi.sourceforge.net/DTD/sodipodi-0.dtd"
   xmlns:inkscape="http://www.inkscape.org/namespaces/inkscape"
   width="210mm"
   height="210mm"
   viewBox="0 0 210 210"
   version="1.1"
   id="svg8"
   inkscape:version="0.92.5 (2060ec1f9f, 2020-04-08)"
   sodipodi:docname="grab.svg">
  <defs
     id="defs2">
    <inkscape:path-effect
       effect="spiro"
       id="path-effect890"
       is_visible="true" />
    <inkscape:path-effect
       effect="spiro"
       id="path-effect886"
       is_visible="true" />
    <inkscape:path-effect
       effect="spiro"
       id="path-effect844"
       is_visible="true" />
    <inkscape:path-effect
       is_visible="true"
       id="path-effect830"
       effect="spiro" />
    <inkscape:path-effect
       effect="spiro"
       id="path-effect844-5"
       is_visible="true" />
    <inkscape:path-effect
       effect="spiro"
       id="path-effect844-2"
       is_visible="true" />
    <inkscape:path-effect
       effect="spiro"
       id="path-effect844-1"
       is_visible="true" />
  </defs>
  <sodipodi:namedview
     id="base"
     pagecolor="#ffffff"
     bordercolor="#666666"
     borderopacity="1.0"
     inkscape:pageopacity="0.0"
     inkscape:pageshadow="2"
     inkscape:zoom="0.98994949"
     inkscape:cx="440.14977"
     inkscape:cy="272.18636"
     inkscape:document-units="mm"
     inkscape:current-layer="layer1"
     showgrid="false"
     inkscape:window-width="1848"
     inkscape:window-height="1136"
     inkscape:window-x="72"
     inkscape:window-y="27"
     inkscape:window-maximized="1" />
  <metadata
     id="metadata5">
    <rdf:RDF>
      <cc:Work
         rdf:about="">
        <dc:format>image/svg+xml</dc:format>
        <dc:type
           rdf:resource="http://purl.org/dc/dcmitype/StillImage" />
        <dc:title></dc:title>
      </cc:Work>
    </rdf:RDF>
  </metadata>
  <g
     inkscape:label="Layer 1"
     inkscape:groupmode="layer"
     id="layer1"
     transform="translate(0,-87)">
    <ellipse
       style="opacity:1;fill:none;fill-opacity:1;fill-rule:nonzero;stroke:#000000;stroke-width:0.25292864;stroke-miterlimit:4;stroke-dasharray:none;stroke-opacity:1"
       id="path840"
       cx="105.07738"
       cy="191.92262"
       rx="102.81557"
       ry="102.81555" />
    <path
       style="fill:none;stroke:#000000;stroke-width:0.26458332px;stroke-linecap:butt;stroke-linejoin:miter;stroke-opacity:1"
       d="m 56.696427,150.72322 c -0.253871,-2.22748 0.414399,-4.54596 1.814902,-6.29659 1.400502,-1.75063 3.515745,-2.91154 5.744622,-3.15282 2.345561,-0.25391 4.784153,0.51894 6.555284,2.07753 1.771131,1.5586 2.847756,3.87914 2.894122,6.23795"
       id="path842"
       inkscape:connector-curvature="0"
       inkscape:path-effect="#path-effect844"
       inkscape:original-d="m 56.696427,150.72322 c 2.520106,-3.15007 5.039947,-6.29987 7.559524,-9.44941 2.519577,-3.14953 6.299869,5.54339 9.449406,8.31548" />
    <path
       transform="translate(21.382173,-19.761277)"
       style="fill:none;stroke:#000000;stroke-width:0.26458332px;stroke-linecap:butt;stroke-linejoin:miter;stroke-opacity:1"
       d="m 56.696427,150.72322 c -0.253871,-2.22748 0.414399,-4.54596 1.814902,-6.29659 1.400502,-1.75063 3.515745,-2.91154 5.744622,-3.15282 2.345561,-0.25391 4.784153,0.51894 6.555284,2.07753 1.771131,1.5586 2.847756,3.87914 2.894122,6.23795"
       id="path842-6"
       inkscape:connector-curvature="0"
       inkscape:path-effect="#path-effect844-5"
       inkscape:original-d="m 56.696427,150.72322 c 2.520106,-3.15007 5.039947,-6.29987 7.559524,-9.44941 2.519577,-3.14953 6.299869,5.54339 9.449406,8.31548" />
    <path
       transform="translate(42.926817,-26.942826)"
       style="fill:none;stroke:#000000;stroke-width:0.26458332px;stroke-linecap:butt;stroke-linejoin:miter;stroke-opacity:1"
       d="m 56.696427,150.72322 c -0.253871,-2.22748 0.414399,-4.54596 1.814902,-6.29659 1.400502,-1.75063 3.515745,-2.91154 5.744622,-3.15282 2.345561,-0.25391 4.784153,0.51894 6.555284,2.07753 1.771131,1.5586 2.847756,3.87914 2.894122,6.23795"
       id="path842-9"
       inkscape:connector-curvature="0"
       inkscape:path-effect="#path-effect844-2"
       inkscape:original-d="m 56.696427,150.72322 c 2.520106,-3.15007 5.039947,-6.29987 7.559524,-9.44941 2.519577,-3.14953 6.299869,5.54339 9.449406,8.31548" />
    <path
       transform="translate(64.943928,-9.9338959)"
       style="fill:none;stroke:#000000;stroke-width:0.26458332px;stroke-linecap:butt;stroke-linejoin:miter;stroke-opacity:1"
       d="m 56.696427,150.72322 c -0.253871,-2.22748 0.414399,-4.54596 1.814902,-6.29659 1.400502,-1.75063 3.515745,-2.91154 5.744622,-3.15282 2.345561,-0.25391 4.784153,0.51894 6.555284,2.07753 1.771131,1.5586 2.847756,3.87914 2.894122,6.23795"
       id="path842-2"
       inkscape:connector-curvature="0"
       inkscape:path-effect="#path-effect844-1"
       inkscape:original-d="m 56.696427,150.72322 c 2.520106,-3.15007 5.039947,-6.29987 7.559524,-9.44941 2.519577,-3.14953 6.299869,5.54339 9.449406,8.31548" />
    <path
       style="fill:none;stroke:#000000;stroke-width:0.26458332px;stroke-linecap:butt;stroke-linejoin:miter;stroke-opacity:1"
       d="m 152.13541,194.94643 c 2.14127,-1.46955 4.80888,-2.1542 7.3932,-1.89748 2.58432,0.25672 5.0651,1.4528 6.87541,3.31489 1.80539,1.85703 2.93002,4.36187 3.1182,6.94501 0.18817,2.58313 -0.56157,5.22452 -2.07877,7.32359"
       id="path884"
       inkscape:connector-curvature="0"
       inkscape:path-effect="#path-effect886"
       inkscape:original-d="m 152.13541,194.94643 c 4.75647,0.47221 9.51267,0.94468 14.26861,1.41741 4.75593,0.47274 0.69322,9.51214 1.03943,14.2686" />
    <path
       style="fill:none;stroke:#000000;stroke-width:0.26458332px;stroke-linecap:butt;stroke-linejoin:miter;stroke-opacity:1"
       d="m 126.14955,250.41444 c -1.30503,1.60407 -3.00838,2.88157 -4.91369,3.68527 -3.07066,1.29526 -6.49954,1.33262 -9.82738,1.5119 -10.39592,0.56007 -20.978732,2.67507 -31.08854,0.18899 -10.71631,-2.63522 -19.964385,-10.65022 -24.095982,-20.88319"
       id="path888"
       inkscape:connector-curvature="0"
       inkscape:path-effect="#path-effect890"
       inkscape:original-d="m 126.14955,250.41444 c -1.63763,1.22815 -3.27553,2.45658 -4.91369,3.68527 -1.63816,1.22868 -6.55132,1.00767 -9.82738,1.5119 -3.27606,0.50423 -20.725428,0.12573 -31.08854,0.18899 -10.363113,0.0633 -16.063725,-13.92239 -24.095982,-20.88319" />
    <path
       style="fill:none;stroke:#000000;stroke-width:0.26458332px;stroke-linecap:butt;stroke-linejoin:miter;stroke-opacity:1"
       d="m 56.696427,150.72322 -0.472469,84.19419"
       id="path892"
       inkscape:connector-curvature="0" />
    <path
       style="fill:none;stroke:#000000;stroke-width:0.26458332px;stroke-linecap:butt;stroke-linejoin:miter;stroke-opacity:1"
       d="m 126.14955,250.41444 41.2939,-39.782"
       id="path894"
       inkscape:connector-curvature="0" />
    <path
       style="fill:none;stroke:#000000;stroke-width:0.26458332px;stroke-linecap:butt;stroke-linejoin:miter;stroke-opacity:1"
       d="m 152.13541,194.94643 -13.95706,13.85463 0.47093,-69.14567"
       id="path896"
       inkscape:connector-curvature="0" />
    <path
       style="fill:none;stroke:#000000;stroke-width:0.26458332px;stroke-linecap:butt;stroke-linejoin:miter;stroke-opacity:1"
       d="m 121.64035,140.78932 0.76909,38.61209 -3.74177,2.13816 -2.93997,-1.87089 0.90447,-57.02222"
       id="path898"
       inkscape:connector-curvature="0" />
    <path
       style="fill:none;stroke:#000000;stroke-width:0.26458332px;stroke-linecap:butt;stroke-linejoin:miter;stroke-opacity:1"
       d="m 99.623244,123.78039 0.602826,55.35375 -2.939962,2.6727 -2.672697,-3.20724 0.474118,-48.77159"
       id="path900"
       inkscape:connector-curvature="0" />
    <path
       style="fill:none;stroke:#000000;stroke-width:0.26458332px;stroke-linecap:butt;stroke-linejoin:miter;stroke-opacity:1"
       d="m 78.078599,130.96194 0.498642,48.97401 -2.405425,1.33635 -2.939966,-2.13816 0.473507,-29.54485"
       id="path902"
       inkscape:connector-curvature="0" />
    <path
       style="opacity:1;fill:#83c9f2;fill-opacity:1;fill-rule:nonzero;stroke:#000000;stroke-width:1.01174331;stroke-miterlimit:4;stroke-dasharray:none;stroke-opacity:1"
       d="M 381.25787,783.8849 C 299.66563,779.96417 222.58099,751.69036 159.39689,702.50868 90.456682,648.84653 41.480678,573.3435 20.69079,488.67478 8.1191936,437.47581 6.3111813,379.17521 15.707004,327.9692 27.552747,263.41145 54.397028,204.64628 95.536772,153.21281 109.54463,135.69999 136.05983,109.15757 153.46848,95.221628 c 23.13138,-18.517097 50.79807,-36.009805 76.0847,-48.10576 39.60242,-18.943972 79.41115,-30.309897 125.95589,-35.962089 20.13581,-2.445206 62.29776,-2.441751 83.3275,0.0068 91.36585,10.638101 171.21831,49.533302 234.91833,114.425981 45.54786,46.40066 77.33854,100.56826 95.35956,162.48158 17.05016,58.57779 20.09399,119.09753 9.018,179.30208 -17.92089,97.41039 -73.88951,185.58759 -154.79298,243.87249 -34.5927,24.92147 -77.7817,45.89668 -118.59997,57.59939 -40.37765,11.57637 -84.29101,16.92598 -123.48164,15.04277 z m 9.59645,-143.15085 c 8.61155,-0.84915 23.38504,-2.03299 32.82996,-2.63075 9.44493,-0.59775 20.31478,-1.74701 24.15521,-2.55392 15.83874,-3.32784 11.59875,0.28951 103.27973,-88.11302 96.96173,-93.49445 89.74786,-85.06529 89.74786,-104.86723 0,-10.87304 -0.0992,-11.36472 -3.80411,-18.86119 -5.84615,-11.82885 -14.87819,-19.1699 -27.69204,-22.50749 -10.21873,-2.66164 -20.74784,-1.51585 -30.1233,3.27805 -2.2224,1.13637 -15.79986,13.5753 -30.17211,27.64206 l -26.13138,25.57593 0.62474,-68.14663 c 0.34362,-37.48066 0.73858,-97.23905 0.8777,-132.79641 l 0.25296,-64.64977 -2.62752,-5.60193 c -3.75079,-7.99676 -8.18636,-12.56426 -15.87596,-16.34814 -5.97256,-2.93895 -7.60819,-3.29387 -14.81332,-3.21433 -12.42882,0.1372 -22.28868,5.70741 -28.30143,15.98854 -4.56782,7.81048 -4.62283,9.32533 -3.03645,83.62091 0.82215,38.50372 1.5005,72.74974 1.50747,76.10227 l 0.0126,6.0955 -6.31345,3.65785 -6.31346,3.65784 -3.53553,-1.98598 c -1.94454,-1.0923 -4.34036,-2.58355 -5.32405,-3.3139 -1.70922,-1.26902 -1.71678,-5.62212 -0.17052,-98.17601 0.8899,-53.26646 1.45981,-103.66664 1.26648,-112.0004 -0.3127,-13.47841 -0.60866,-15.63764 -2.67917,-19.54585 -6.31864,-11.92684 -16.92306,-18.45186 -30.07165,-18.50343 -6.54243,-0.0257 -8.54345,0.42076 -14.06071,3.1369 -7.81886,3.84921 -13.74456,10.26304 -16.71905,18.09628 l -2.16612,5.70442 1.20835,109.09648 1.20833,109.09647 -4.77113,4.33087 c -2.62413,2.38197 -5.1176,4.20025 -5.54106,4.04061 -0.42347,-0.15964 -2.66668,-2.5631 -4.98492,-5.34102 l -4.21499,-5.05076 0.59134,-50.00255 c 0.32523,-27.5014 0.69924,-70.45814 0.83115,-95.45942 l 0.23983,-45.45686 -2.67484,-5.7053 c -8.45266,-18.02907 -29.06737,-24.79914 -46.54593,-15.28611 -6.12341,3.33277 -10.38243,8.07836 -13.81163,15.38948 -3.12701,6.66688 -3.04187,1.02161 -1.84439,122.27455 l 0.78312,79.29697 -3.88675,2.19977 -3.88674,2.19978 -5.33084,-3.71501 -5.33084,-3.715 0.6328,-30.30457 c 0.34804,-16.66752 0.73428,-43.25978 0.85832,-59.09393 l 0.22552,-28.78934 -2.62752,-5.60194 c -1.44515,-3.08106 -4.0978,-7.27648 -5.89481,-9.32316 -3.86092,-4.39734 -13.81835,-9.46273 -20.39908,-10.37709 -10.60015,-1.47286 -23.5475,4.12673 -30.32907,13.11701 -7.25294,9.61514 -6.79874,-0.93604 -7.72104,179.36542 l -0.82934,162.12949 4.25883,9.09137 c 14.31911,30.56722 45.06709,57.36148 78.28102,68.21529 8.11629,2.65228 19.84323,5.22511 29.20264,6.40692 7.20223,0.90942 52.53514,-0.27521 67.68022,-1.76859 z"
       id="path904"
       inkscape:connector-curvature="0"
       transform="matrix(0.26458333,0,0,0.26458333,0,87)" />
  </g>
</svg>
