<?xml version="1.0" standalone="no"?>
<!DOCTYPE svg PUBLIC "-//W3C//DTD SVG 20010904//EN"
 "http://www.w3.org/TR/2001/REC-SVG-20010904/DTD/svg10.dtd">
<svg version="1.0" xmlns="http://www.w3.org/2000/svg"
 width="640.000000pt" height="1280.000000pt" viewBox="0 0 640.000000 1280.000000"
 preserveAspectRatio="xMidYMid meet">
<g transform="translate(0.000000,1280.000000) scale(0.100000,-0.100000)"
fill="#000000" stroke="none">
<path d="M3161 12775 c-121 -86 -280 -417 -478 -1000 l-65 -190 2 -2236 1
-2236 -73 -94 c-682 -873 -1039 -1458 -1015 -1666 11 -97 88 -121 283 -88 97
17 268 67 324 94 19 10 129 75 243 144 115 70 215 127 223 127 10 0 14 -26 16
-122 l3 -123 144 -5 c83 -3 146 -9 148 -15 1 -5 -49 -100 -112 -209 -62 -110
-112 -203 -109 -208 3 -4 20 -8 39 -8 19 0 37 -4 40 -10 3 -5 -3 -10 -14 -10
-36 0 -58 -46 -95 -203 -134 -558 -170 -883 -131 -1182 56 -435 216 -1268 476
-2483 136 -639 157 -728 173 -742 25 -20 21 -33 245 1000 285 1315 448 2150
482 2468 22 201 -15 413 -131 762 -71 213 -117 330 -141 358 -25 29 -21 37 25
47 l45 10 -120 198 c-65 109 -119 202 -119 208 0 5 61 9 144 9 l143 0 7 53 c3
28 6 89 6 135 0 45 2 82 5 82 15 0 124 -62 293 -166 153 -94 206 -121 292
-149 155 -50 256 -68 361 -63 85 3 92 5 115 31 83 96 -42 396 -365 877 -154
230 -303 436 -510 704 l-191 248 0 2226 0 2225 -35 117 c-179 598 -368 1017
-492 1090 -42 24 -40 25 -82 -5z"/>
</g>
</svg>
