<?xml version="1.0" encoding="utf-8"?>
<!-- Svg Vector Icons : http://www.onlinewebfonts.com/icon -->
<!DOCTYPE svg PUBLIC "-//W3C//DTD SVG 1.1//EN" "http://www.w3.org/Graphics/SVG/1.1/DTD/svg11.dtd">
<svg version="1.1" xmlns="http://www.w3.org/2000/svg" xmlns:xlink="http://www.w3.org/1999/xlink" x="0px" y="0px" viewBox="0 0 1000 1000" enable-background="new 0 0 1000 1000" xml:space="preserve">
<metadata> Svg Vector Icons : http://www.onlinewebfonts.com/icon </metadata>
<g><path d="M563.1,238.7l23-9.3c19.5-7.9,25.9-20.2,19.1-37c-7.7-19.1-29.8-21.3-66-6.6l-37.9,15.4l-88.3-53l27.1-11c18.1-7.3,23.7-19.4,17-36.1c-7.8-19.2-24.2-23.5-49.5-13.3l-55.3,22.5c-98.8-60.2-156.6-86.8-173.3-80c-7.7,3.2-14.9,9.8-21.4,19.8c-6.5,10-8.2,18.6-5.3,25.7c2.9,7.2,20,21.8,51.4,43.9c31.4,22.1,82.1,66.5,152,133.3c69.9,66.8,108.3,108.8,115.3,125.9c4.4,10.9-9.5,23.6-41.9,38c-107.5,44.4-182.8,80.9-225.7,109.5c-7.3-2.5-27.8-14.4-61.2-35.7c-33.5-21.2-55.4-33-65.6-35.3c-10.4-2.4-25.7,0.5-46.2,8.9c-10.9,4.4-17.7,9-20.2,13.5c5.4,13.3,41,54.7,107,124.2c-1.9,88.3,1.4,142.8,9.8,163.6c5,1.5,13,0.1,23.9-4.3c20.5-8.4,33.5-16.8,39.1-25.4c5.7-8.7,13.2-32.4,22.5-71.1c9.3-38.7,15.7-61.7,19.2-68.6c50.3-10.5,106.2-27.9,168.2-52.2c61.9-24.2,97.8-36.8,107.7-37.4c9.9-0.6,16.2,2.3,18.8,8.8c6.8,16.8,8.4,73.5,5,170.3c-3.4,96.8-8.8,164.2-15.9,201.8c-7.1,37.7-9.2,60.1-6.3,67.3c2.9,7.1,10.1,11.9,21.7,14.4c11.6,2.5,21.3,2.2,29.1-1c16.8-6.8,39.6-66,68.7-177.6l55.3-22.5c25.3-10.3,34-24.9,26.2-44c-6.8-16.8-19.2-21.4-37.3-14.1l-27.1,11l26.4-99.5l37.9-15.4c36.2-14.7,50.4-31.7,42.7-50.8c-6.8-16.8-20-21.2-39.4-13.3l-23,9.4l47.3-145L856.1,358c101.3-41.1,145.2-78.6,131.4-112.4c-5.4-13.3-30.2-16-74.5-7.9c-44.2,8.1-76.2,16.1-96,24.1L698.2,310L563.1,238.7L563.1,238.7z"/></g>
</svg>