<?xml version="1.0" standalone="no"?>
<!DOCTYPE svg PUBLIC "-//W3C//DTD SVG 20010904//EN"
 "http://www.w3.org/TR/2001/REC-SVG-20010904/DTD/svg10.dtd">
<svg version="1.0" xmlns="http://www.w3.org/2000/svg"
 width="920.000000pt" height="920.000000pt" viewBox="0 0 920.000000 920.000000"
 preserveAspectRatio="xMidYMid meet">

<g transform="translate(0.000000,920.000000) scale(0.100000,-0.100000)"
fill="#000000" stroke="none">
<path d="M2580 9011 c0 -5 22 -87 49 -182 27 -96 79 -282 116 -414 36 -132 93
-336 126 -452 32 -117 86 -310 119 -428 33 -118 87 -312 120 -430 68 -243 154
-550 240 -860 32 -115 82 -293 110 -395 29 -102 76 -270 105 -375 29 -104 66
-235 80 -290 15 -55 30 -105 32 -112 4 -11 -210 -13 -1100 -13 l-1106 0 -459
688 -458 687 -188 3 c-103 1 -185 -1 -183 -5 3 -5 58 -244 122 -533 63 -289
136 -613 160 -720 88 -390 85 -368 85 -576 0 -209 0 -208 -84 -579 -25 -110
-89 -396 -141 -635 -53 -239 -107 -479 -120 -533 l-23 -97 186 2 186 3 458
688 459 687 1106 0 c957 0 1104 -2 1100 -14 -3 -8 -11 -34 -17 -58 -11 -42
-71 -256 -191 -685 -32 -117 -86 -310 -119 -428 -33 -118 -87 -312 -120 -430
-150 -539 -182 -651 -229 -820 -27 -99 -81 -292 -120 -430 -38 -137 -95 -342
-126 -455 -32 -113 -84 -299 -116 -413 -33 -115 -59 -213 -59 -218 0 -5 115
-9 268 -9 266 0 269 0 289 23 17 18 263 371 978 1397 56 80 191 273 300 430
109 157 296 425 415 595 119 171 260 373 314 450 332 476 525 752 626 898
l115 166 1201 1 c738 0 1204 4 1210 9 5 6 56 17 114 26 298 48 533 172 606
321 23 47 26 63 22 119 -4 44 -14 78 -32 109 -81 139 -309 254 -596 301 -58 9
-109 21 -114 26 -6 5 -517 9 -1210 9 l-1201 1 -150 216 c-82 119 -249 358
-370 532 -122 174 -310 444 -420 601 -109 157 -280 402 -380 545 -100 143
-339 485 -530 760 -468 670 -552 791 -745 1068 l-165 237 -272 0 c-152 0 -273
-4 -273 -9z"/>
</g>
</svg>
