<?xml version="1.0" encoding="UTF-8" standalone="no"?>
<!-- Created with Inkscape (http://www.inkscape.org/) -->

<svg
   xmlns:dc="http://purl.org/dc/elements/1.1/"
   xmlns:cc="http://creativecommons.org/ns#"
   xmlns:rdf="http://www.w3.org/1999/02/22-rdf-syntax-ns#"
   xmlns:svg="http://www.w3.org/2000/svg"
   xmlns="http://www.w3.org/2000/svg"
   xmlns:sodipodi="http://sodipodi.sourceforge.net/DTD/sodipodi-0.dtd"
   xmlns:inkscape="http://www.inkscape.org/namespaces/inkscape"
   width="210mm"
   height="210mm"
   viewBox="0 0 210 210"
   version="1.1"
   id="svg8"
   inkscape:version="0.92.5 (2060ec1f9f, 2020-04-08)"
   sodipodi:docname="select.svg">
  <defs
     id="defs2">
    <inkscape:path-effect
       effect="spiro"
       id="path-effect864"
       is_visible="true" />
    <inkscape:path-effect
       effect="spiro"
       id="path-effect848"
       is_visible="true" />
    <inkscape:path-effect
       effect="spiro"
       id="path-effect844"
       is_visible="true" />
    <inkscape:path-effect
       effect="spiro"
       id="path-effect840"
       is_visible="true" />
    <inkscape:path-effect
       effect="spiro"
       id="path-effect836"
       is_visible="true" />
    <inkscape:path-effect
       effect="spiro"
       id="path-effect832"
       is_visible="true" />
    <inkscape:path-effect
       effect="spiro"
       id="path-effect828"
       is_visible="true" />
  </defs>
  <sodipodi:namedview
     id="base"
     pagecolor="#ffffff"
     bordercolor="#666666"
     borderopacity="1.0"
     inkscape:pageopacity="0.0"
     inkscape:pageshadow="2"
     inkscape:zoom="0.7"
     inkscape:cx="270.9612"
     inkscape:cy="509.95897"
     inkscape:document-units="mm"
     inkscape:current-layer="layer1"
     showgrid="false"
     inkscape:window-width="1848"
     inkscape:window-height="1136"
     inkscape:window-x="72"
     inkscape:window-y="27"
     inkscape:window-maximized="1" />
  <metadata
     id="metadata5">
    <rdf:RDF>
      <cc:Work
         rdf:about="">
        <dc:format>image/svg+xml</dc:format>
        <dc:type
           rdf:resource="http://purl.org/dc/dcmitype/StillImage" />
        <dc:title></dc:title>
      </cc:Work>
    </rdf:RDF>
  </metadata>
  <g
     inkscape:label="Layer 1"
     inkscape:groupmode="layer"
     id="layer1"
     transform="translate(0,-87)">
    <path
       style="fill:none;stroke:#000000;stroke-width:0.26458332px;stroke-linecap:butt;stroke-linejoin:miter;stroke-opacity:1"
       d="m 50.781209,177.39689 c -0.569882,-0.74491 -1.332934,-1.34073 -2.193793,-1.71299 -0.860859,-0.37227 -1.817614,-0.52015 -2.750693,-0.42517 -1.380266,0.1405 -2.697978,0.82376 -3.608139,1.87089"
       id="path826"
       inkscape:connector-curvature="0"
       inkscape:path-effect="#path-effect828"
       inkscape:original-d="m 50.781209,177.39689 c -1.647897,-0.71298 -3.296058,-1.4257 -4.944486,-2.13816 -1.648426,-0.71245 -2.40516,1.247 -3.608139,1.87089" />
    <path
       style="fill:none;stroke:#000000;stroke-width:0.26458332px;stroke-linecap:butt;stroke-linejoin:miter;stroke-opacity:1"
       d="m 26.058779,192.89852 c -0.837375,1.19274 -1.224715,2.69368 -1.069078,4.14268 0.165768,1.54331 0.94886,3.01161 2.138155,4.00904"
       id="path830"
       inkscape:connector-curvature="0"
       inkscape:path-effect="#path-effect832"
       inkscape:original-d="m 26.058779,192.89852 c -0.356095,1.38063 -0.712455,2.76152 -1.069078,4.14268 -0.356624,1.38116 1.425702,2.67243 2.138155,4.00904" />
    <path
       style="fill:none;stroke:#000000;stroke-width:0.26458332px;stroke-linecap:butt;stroke-linejoin:miter;stroke-opacity:1"
       d="m 84.858073,258.9141 c 1.155876,1.77407 3.228151,2.91382 5.34539,2.93996 1.163239,0.0144 2.328825,-0.29215 3.33453,-0.87686 1.005704,-0.58471 1.848738,-1.44601 2.411765,-2.46401"
       id="path834"
       inkscape:connector-curvature="0"
       inkscape:path-effect="#path-effect836"
       inkscape:original-d="m 84.858073,258.9141 c 1.782061,0.97972 3.563858,1.95971 5.34539,2.93996 1.781533,0.98025 3.83113,-2.22751 5.746295,-3.34087" />
    <path
       style="fill:none;stroke:#000000;stroke-width:0.26458332px;stroke-linecap:butt;stroke-linejoin:miter;stroke-opacity:1"
       d="m 84.858073,211.74102 c 1.08534,1.26854 2.628612,2.13664 4.276312,2.40543 1.341783,0.21889 2.745375,0.0441 3.992524,-0.49708 1.247148,-0.54121 2.333496,-1.447 3.090121,-2.57652"
       id="path838"
       inkscape:connector-curvature="0"
       inkscape:path-effect="#path-effect840"
       inkscape:original-d="m 84.858073,211.74102 c 1.425702,0.80155 2.851139,1.60336 4.276312,2.40543 1.425173,0.80207 4.722027,-2.04933 7.082645,-3.0736" />
    <path
       style="fill:none;stroke:#000000;stroke-width:0.26458332px;stroke-linecap:butt;stroke-linejoin:miter;stroke-opacity:1"
       d="m 162.76714,144.65637 c 1.11221,-1.09653 2.59264,-1.81286 4.14268,-2.00452 1.36333,-0.16857 2.77408,0.0666 4.00904,0.66818"
       id="path842"
       inkscape:connector-curvature="0"
       inkscape:path-effect="#path-effect844"
       inkscape:original-d="m 162.76714,144.65637 c 1.33661,-0.66844 2.76205,-1.33661 4.14268,-2.00452 1.38063,-0.66791 2.67296,0.44519 4.00904,0.66818" />
    <path
       style="fill:none;stroke:#000000;stroke-width:0.26458332px;stroke-linecap:butt;stroke-linejoin:miter;stroke-opacity:1"
       d="m 185.88596,158.42075 c 1.22427,1.15828 2.03944,2.74068 2.27178,4.40995 0.21551,1.5484 -0.0693,3.16247 -0.8018,4.54358"
       id="path846"
       inkscape:connector-curvature="0"
       inkscape:path-effect="#path-effect848"
       inkscape:original-d="m 185.88596,158.42075 c 0.75752,1.42518 1.51479,2.9397 2.27178,4.40995 0.757,1.47025 -0.53427,3.02879 -0.8018,4.54358" />
    <path
       style="fill:none;stroke:#000000;stroke-width:0.26458332px;stroke-linecap:butt;stroke-linejoin:miter;stroke-opacity:1"
       d="m 170.91886,143.32003 14.9671,15.10072"
       id="path850"
       inkscape:connector-curvature="0" />
    <path
       style="fill:none;stroke:#000000;stroke-width:0.26458332px;stroke-linecap:butt;stroke-linejoin:miter;stroke-opacity:1"
       d="M 162.76714,144.65637 96.21703,211.07285"
       id="path852"
       inkscape:connector-curvature="0" />
    <path
       style="fill:none;stroke:#000000;stroke-width:0.26458332px;stroke-linecap:butt;stroke-linejoin:miter;stroke-opacity:1"
       d="M 187.35594,167.37428 95.949756,258.51319"
       id="path854"
       inkscape:connector-curvature="0" />
    <path
       style="fill:none;stroke:#000000;stroke-width:0.26458332px;stroke-linecap:butt;stroke-linejoin:miter;stroke-opacity:1"
       d="M 84.858073,258.9141 27.127856,201.05024"
       id="path856"
       inkscape:connector-curvature="0" />
    <path
       style="fill:none;stroke:#000000;stroke-width:0.26458332px;stroke-linecap:butt;stroke-linejoin:miter;stroke-opacity:1"
       d="m 50.781209,177.39689 34.076864,34.34413"
       id="path858"
       inkscape:connector-curvature="0" />
    <path
       style="fill:none;stroke:#000000;stroke-width:0.26458332px;stroke-linecap:butt;stroke-linejoin:miter;stroke-opacity:1"
       d="m 26.058779,192.89852 16.169805,-15.7689"
       id="path860"
       inkscape:connector-curvature="0" />
    <path
       style="fill:none;stroke:#000000;stroke-width:0.26458332px;stroke-linecap:butt;stroke-linejoin:miter;stroke-opacity:1"
       d="m 49.892857,101.96429 c 15.123657,-9.539542 32.82405,-14.918518 50.694353,-15.534995 17.87031,-0.616478 35.86712,3.516989 51.73719,11.755233 23.51061,12.204492 42.12792,33.548152 51.00817,58.504902 8.88025,24.95676 7.92772,53.27061 -2.62722,77.56653 -12.33773,28.39962 -37.82646,50.79437 -67.62224,59.21872 -29.79578,8.42435 -63.309628,2.65742 -88.48192,-15.37349 C 25.604213,264.49365 11.498858,244.26177 5.0675626,221.7965 -1.3637332,199.33122 -0.12253996,174.78213 8.315476,152.99108 c 8.058866,-20.8119 22.7011,-39.12021 41.577381,-51.02679 z"
       id="path862"
       inkscape:connector-curvature="0"
       inkscape:path-effect="#path-effect864"
       inkscape:original-d="M 49.892857,101.96429 C 63.751718,84.955626 118.18082,99.444185 152.3244,98.184528 186.46799,96.924872 184.57864,188.89855 200.70535,234.25596 216.83207,279.61336 96.636177,263.48585 44.60119,278.10119 -7.4337962,292.71654 20.410979,194.69418 8.315476,152.99108 -3.7800264,111.28797 36.033995,118.97295 49.892857,101.96429 Z" />
    <path
       style="opacity:1;fill:#83c9f2;fill-opacity:1;fill-rule:nonzero;stroke:#000000;stroke-width:1.43082106;stroke-miterlimit:4;stroke-dasharray:none;stroke-opacity:1"
       d="M 359.81834,791.99442 C 304.7986,785.48009 261.76694,772.75044 216.24691,749.52306 134.53206,707.82664 68.910414,635.04094 33.522063,546.84974 14.215923,498.73699 5.5309941,452.73566 5.5343592,398.60772 5.5391628,321.3408 24.991891,250.68792 63.917923,186.55686 126.07495,84.152502 224.37583,19.225345 343.38977,1.9673327 369.20583,-1.7762099 421.06688,-1.4432769 447.67548,2.6368168 509.17,12.066228 562.33633,32.340262 611.24691,65.011886 c 24.85726,16.604318 39.16895,28.373496 60.76179,49.967314 63.47753,63.48034 101.2549,138.45552 114.47373,227.19119 3.60485,24.19881 3.61475,85.68495 0.0177,110 -15.42237,104.2509 -65.534,191.23941 -148.11037,257.104 -50.1629,40.01095 -111.0368,67.3343 -175.71429,78.86963 -18.34392,3.27165 -25.12804,3.73721 -59.28571,4.0684 -21.21429,0.2057 -40.82143,0.10757 -43.57143,-0.218 z m -8.12037,-132.18728 c 1.7162,-0.90694 83.00031,-81.39141 180.63136,-178.8544 142.87105,-142.62514 177.78605,-178.19562 178.9206,-182.27961 4.39721,-15.82851 0.93315,-21.41884 -36.0266,-58.1401 -44.55397,-44.26646 -37.51603,-45.42607 -101.02429,16.64544 -25.58796,25.00909 -85.71303,84.74556 -133.61126,132.74772 -96.57324,96.78278 -91.74152,92.79017 -107.12325,88.51968 -4.77005,-1.32433 -16.31912,-12.35117 -74.90846,-71.52127 -38.09793,-38.47556 -71.04607,-70.87453 -73.21811,-71.99774 -4.57739,-2.36706 -13.69026,-2.66699 -19.05539,-0.62717 -2.04697,0.77825 -18.80586,16.30908 -37.24198,34.51295 -37.231192,36.76218 -38.272663,38.28883 -34.856759,51.09552 1.609064,6.0326 10.809799,15.63833 116.904799,122.05067 63.33705,63.5265 117.08685,116.37634 119.444,117.44409 5.29191,2.39714 16.97198,2.62021 21.16534,0.40422 z"
       id="path866"
       inkscape:connector-curvature="0"
       transform="matrix(0.26458333,0,0,0.26458333,0,87)" />
  </g>
</svg>
